<svg width="1000" height="1000" viewBox="0 0 1000 1000" fill="none" xmlns="http://www.w3.org/2000/svg">
<g clip-path="url(#clip0_1_2)">
<circle cx="500" cy="500" r="500" fill="#EFA5B5"/>
<path d="M644.4 279.1C609 275.5 579.3 272.8 555.3 271C531.9 269.2 498.9 268.3 456.3 268.3V842.5L416.7 839.8L377.1 842.5V268.3C335.1 268.3 300.3 269.2 272.7 271C245.1 272.8 214.2 275.5 180 279.1L182.7 252.1L180 225.1H644.4L641.7 252.1L644.4 279.1Z" fill="white"/>
<mask id="mask0_1_2" style="mask-type:alpha" maskUnits="userSpaceOnUse" x="502" y="14" width="187" height="914">
<path d="M688.2 63.3C688.2 76.6 683.45 88 673.95 97.5C664.45 107 653.367 111.75 640.7 111.75C628.033 111.75 616.633 107 606.5 97.5C596.367 88 591.3 76.6 591.3 63.3C591.3 50 596.05 38.6 605.55 29.1C615.05 19.6 626.767 14.85 640.7 14.85C653.367 14.85 664.45 19.6 673.95 29.1C683.45 38.6 688.2 50 688.2 63.3ZM677.75 696C677.75 758.7 668.25 808.1 649.25 844.2C634.05 873.333 610.933 895.5 579.9 910.7C569.767 915.767 559.633 919.883 549.5 923.05C539.367 926.217 529.867 927.8 521 927.8H508.65L502 897.4L520.05 900.25C540.317 900.25 557.733 885.683 572.3 856.55C582.433 836.917 589.717 814.75 594.15 790.05C599.217 765.983 601.75 733.683 601.75 693.15V225.75L639.75 228.6L677.75 225.75V696Z" fill="white"/>
</mask>
<g mask="url(#mask0_1_2)">
<rect x="496" y="194" width="206" height="745" fill="white"/>
</g>
<rect x="599" y="225" width="79" height="22" fill="white"/>
<circle cx="641" cy="141" r="40" fill="white"/>
</g>
<defs>
<clipPath id="clip0_1_2">
<rect width="1000" height="1000" fill="white"/>
</clipPath>
</defs>
</svg>
